<svg width="36" height="31" fill="none" xmlns="http://www.w3.org/2000/svg"><path d="M2 19.52c.34-2.562 1.345-7.687 2.65-7.687 1.304 0 2.245 4.646 2.65 7.688.404 3.042.978 5.363 2.038 5.363 1.06 0 1.868-3.575 2.14-5.363C12.246 14.469 13.649 2 15.554 2c1.604 0 2.867 10.306 3.429 17.52.56 5.306 1.096 9.62 2.482 9.477 1.386-.143 2.414-5.644 2.991-9.476.421-2.797 1.108-5.542 2.308-5.542 1.2 0 2.005 3.754 2.344 5.542.17.834.681 2.86 1.529 2.86.831 0 1.117-1.483 1.258-2.86.14-1.078.465-1.815 1.122-1.815.562 0 .983 1.398.983 1.815" stroke="#292929" stroke-width="3"/></svg>